<svg width="62" height="40" viewBox="0 0 62 40" fill="none" xmlns="http://www.w3.org/2000/svg">
<path d="M9.13297 24.1441H1.38379V6.84683H9.13297C10.6859 6.84683 11.9851 7.00827 13.0306 7.33116C14.0761 7.63865 14.9141 8.13837 15.5445 8.83026C16.1749 9.52215 16.6208 10.4139 16.8822 11.5056C17.1589 12.5972 17.2973 13.9195 17.2973 15.4724C17.2973 17.0253 17.1589 18.3553 16.8822 19.4623C16.6208 20.554 16.1749 21.4458 15.5445 22.1377C14.9141 22.8296 14.0761 23.3369 13.0306 23.6598C11.9851 23.9827 10.6859 24.1441 9.13297 24.1441ZM9.22522 11.2749H6.91892V19.716H9.22522C9.99398 19.716 10.5398 19.6315 10.8627 19.4623C11.201 19.2778 11.3701 18.8704 11.3701 18.24V12.751C11.3701 12.1206 11.201 11.7208 10.8627 11.5517C10.5398 11.3672 9.99398 11.2749 9.22522 11.2749ZM23.7184 19.4393V20.4079C23.9951 20.4387 24.2719 20.4617 24.5486 20.4771C24.8254 20.4925 25.1021 20.5002 25.3789 20.5002C27.101 20.5002 28.8384 20.2234 30.5912 19.6699L31.2369 23.729C29.1612 24.2825 27.1163 24.5593 25.1021 24.5593C22.5191 24.5593 20.651 23.9596 19.4978 22.7604C18.3447 21.5457 17.7681 19.7006 17.7681 17.2252C17.7681 14.7498 18.3447 12.9124 19.4978 11.7131C20.6664 10.4985 22.5345 9.89116 25.1021 9.89116C26.3937 9.89116 27.47 9.97574 28.331 10.1449C29.192 10.2986 29.8839 10.5677 30.4066 10.9521C30.9448 11.3211 31.3215 11.8285 31.5367 12.4742C31.7674 13.1046 31.8827 13.9041 31.8827 14.8728C31.8827 15.6723 31.7443 16.3642 31.4675 16.9485C31.2062 17.5174 30.7603 17.9863 30.1299 18.3553C29.4995 18.7243 28.6615 19.0011 27.616 19.1856C26.5705 19.3547 25.2713 19.4393 23.7184 19.4393ZM23.7184 15.1034V16.2335H24.8485C25.525 16.2335 26.0093 16.1643 26.3014 16.0259C26.6089 15.8876 26.7627 15.5647 26.7627 15.0573V13.9272H25.6326C24.9561 13.9272 24.4641 13.9964 24.1566 14.1348C23.8644 14.2731 23.7184 14.596 23.7184 15.1034ZM42.5776 24.1441H35.1054L31.6459 10.3063H37.1809L38.703 19.3009H38.9798L40.5019 10.3063H46.0371L42.5776 24.1441Z" fill="black"/>
<path d="M7.72617 33.1849V35.6757H1.49915V25.946H4.61266V33.1849H7.72617ZM22.1926 38.2443V27.8919H23.7493L24.3201 28.6703C24.7785 27.9957 25.6261 27.6584 26.8628 27.6584C27.4855 27.6584 28.0088 27.7708 28.4326 27.9957C28.8563 28.2206 29.198 28.5233 29.4574 28.9038C29.7255 29.2757 29.9158 29.7124 30.0282 30.2141C30.1493 30.7157 30.2099 31.2389 30.2099 31.7838C30.2099 32.3114 30.158 32.8087 30.0542 33.2757C29.9504 33.7427 29.7774 34.1578 29.5353 34.5211C29.2931 34.8757 28.9731 35.1568 28.5753 35.3643C28.1774 35.5719 27.6844 35.6757 27.0963 35.6757H25.3061V38.0108L22.1926 38.2443ZM25.3061 30.5124V33.6389H25.7861C26.1666 33.6389 26.439 33.6 26.6034 33.5222C26.7763 33.4443 26.8628 33.2627 26.8628 32.9773V29.9287H26.3828C26.158 29.9287 25.9763 29.9373 25.838 29.9546C25.6996 29.9719 25.5785 30.0281 25.4747 30.1233C25.3709 30.2097 25.3147 30.3395 25.3061 30.5124ZM34.1 33.0292V33.5741C34.2557 33.5914 34.4114 33.6043 34.567 33.613C34.7227 33.6216 34.8784 33.626 35.0341 33.626C36.0027 33.626 36.9799 33.4703 37.9658 33.1589L38.3291 35.4422C37.1615 35.7535 36.0114 35.9092 34.8784 35.9092C33.4254 35.9092 32.3746 35.5719 31.726 34.8973C31.0773 34.2141 30.753 33.1762 30.753 31.7838C30.753 30.3914 31.0773 29.3578 31.726 28.6833C32.3833 28 33.4341 27.6584 34.8784 27.6584C35.6049 27.6584 36.2101 27.706 36.6945 27.8011C37.1788 27.8876 37.568 28.0389 37.862 28.2551C38.1647 28.4627 38.3766 28.7481 38.4977 29.1114C38.6274 29.466 38.6923 29.9157 38.6923 30.4606C38.6923 30.9103 38.6145 31.2995 38.4588 31.6281C38.3118 31.9481 38.061 32.2119 37.7064 32.4195C37.3518 32.627 36.8804 32.7827 36.2923 32.8865C35.7043 32.9816 34.9735 33.0292 34.1 33.0292ZM34.1 30.5903V31.226H34.7357C35.1162 31.226 35.3887 31.187 35.553 31.1092C35.726 31.0314 35.8125 30.8497 35.8125 30.5643V29.9287H35.1768C34.7962 29.9287 34.5195 29.9676 34.3465 30.0454C34.1822 30.1233 34.1 30.3049 34.1 30.5903ZM39.4674 35.6757V27.8919H41.0242L41.8804 28.7611C42.5031 28.1903 43.2729 27.8227 44.1896 27.6584L44.3712 30.6033C44.2501 30.6033 44.1031 30.6206 43.9301 30.6551C43.7572 30.6897 43.5799 30.733 43.3983 30.7849C43.2253 30.8368 43.0653 30.9016 42.9183 30.9795C42.7712 31.0487 42.6588 31.1308 42.581 31.226V35.6757H39.4674ZM45.671 28.2033C46.337 27.84 47.2494 27.6584 48.4083 27.6584C49.5759 27.6584 50.644 27.8184 51.6127 28.1384L51.2494 30.253C50.8429 30.1319 50.4408 30.0454 50.0429 29.9935C49.6451 29.9416 49.2386 29.9157 48.8235 29.9157C48.7024 29.9157 48.551 29.92 48.3694 29.9287C48.1965 29.9373 47.9975 29.9546 47.7727 29.9805V30.4735C48.2483 30.4735 48.737 30.4995 49.2386 30.5514C49.7402 30.5946 50.1943 30.707 50.6008 30.8887C51.0159 31.0616 51.3532 31.3254 51.6127 31.68C51.8808 32.026 52.0148 32.5016 52.0148 33.107C52.0148 33.5308 51.9673 33.9114 51.8721 34.2487C51.777 34.5773 51.63 34.8411 51.431 35.04C51.2235 35.2389 51.0073 35.3989 50.7824 35.52C50.5662 35.6411 50.2808 35.7276 49.9262 35.7795C49.6494 35.8227 49.351 35.853 49.031 35.8703C48.7197 35.8962 48.3824 35.9092 48.0192 35.9092C46.7478 35.9092 45.5846 35.7578 44.5294 35.4551L44.9186 33.2497C45.3597 33.3795 45.8138 33.4789 46.2808 33.5481C46.7478 33.6173 47.2365 33.6519 47.7467 33.6519C47.9802 33.6519 48.2008 33.6476 48.4083 33.6389C48.6246 33.6303 48.8321 33.613 49.031 33.587V33.0941C48.2008 33.0941 47.5046 33.0422 46.9424 32.9384C46.3889 32.826 45.9392 32.6573 45.5932 32.4324C45.2559 32.2076 45.0138 31.9135 44.8667 31.5503C44.7283 31.187 44.6592 30.7546 44.6592 30.253C44.6592 29.2497 44.9965 28.5665 45.671 28.2033Z" fill="black"/>
<path d="M21.8356 31.9482C21.8356 32.6164 21.6855 33.2395 21.3852 33.8176C21.0849 34.3957 20.672 34.8649 20.1464 35.2252C19.6209 35.5781 19.0241 35.7545 18.3559 35.7545C17.6652 35.7545 17.0346 35.5968 16.464 35.2815C15.8935 34.9587 15.3716 34.4632 14.8987 33.795C14.4257 34.3882 13.9039 34.8536 13.3334 35.1914C12.7703 35.5218 12.2073 35.6869 11.6442 35.6869C10.9235 35.6869 10.2891 35.5293 9.74102 35.214C9.20048 34.8912 8.77634 34.4407 8.46852 33.8627C8.16823 33.2846 8.01807 32.6164 8.01807 31.8581C8.01807 31.1224 8.17572 30.4693 8.49104 29.8987C8.80635 29.3281 9.23803 28.8776 9.78607 28.5473C10.3341 28.217 10.9535 28.0518 11.6442 28.0518C12.3349 28.0518 12.9505 28.2095 13.491 28.5248C14.0316 28.8401 14.5158 29.3281 14.9438 29.9888C15.3942 29.4032 15.8897 28.949 16.4302 28.6262C16.9783 28.3033 17.5976 28.1419 18.2883 28.1419C19.3394 28.1419 20.1915 28.4948 20.8447 29.2005C21.5053 29.9062 21.8356 30.8221 21.8356 31.9482ZM13.6262 31.8807C13.3409 31.3852 13.0406 31.0135 12.7253 30.7658C12.4175 30.5105 12.0946 30.3829 11.7568 30.3829C11.3214 30.3829 10.9723 30.5218 10.7095 30.7996C10.4542 31.0774 10.3266 31.4377 10.3266 31.8807C10.3266 32.3161 10.458 32.6727 10.7208 32.9505C10.9835 33.2207 11.3289 33.3559 11.7568 33.3559C12.1097 33.3559 12.4362 33.2358 12.7366 32.9955C13.0443 32.7478 13.3409 32.3762 13.6262 31.8807ZM19.5271 31.9032C19.5271 31.4828 19.3957 31.1374 19.1329 30.8671C18.8702 30.5894 18.5248 30.4505 18.0969 30.4505C17.7666 30.4505 17.4437 30.5668 17.1284 30.7996C16.8131 31.0323 16.4978 31.3927 16.1825 31.8807C16.4753 32.3536 16.7906 32.729 17.1284 33.0068C17.4663 33.2846 17.7966 33.4234 18.1194 33.4234C18.5474 33.4234 18.8889 33.2808 19.1442 32.9955C19.3994 32.7027 19.5271 32.3386 19.5271 31.9032Z" fill="black"/>
</svg>
