<svg width="16" height="16" viewBox="0 0 16 16" fill="none" xmlns="http://www.w3.org/2000/svg">
<path d="M6.00195 4.00191C6.00195 2.89844 6.89649 2.00391 7.99995 2.00391C9.10342 2.00391 9.99796 2.89844 9.99796 4.00191C9.99796 5.10537 9.10342 5.99991 7.99995 5.99991C6.89649 5.99991 6.00195 5.10537 6.00195 4.00191ZM7.99995 3.00391C7.44877 3.00391 7.00195 3.45073 7.00195 4.00191C7.00195 4.55309 7.44877 4.99991 7.99995 4.99991C8.55114 4.99991 8.99796 4.55309 8.99796 4.00191C8.99796 3.45073 8.55114 3.00391 7.99995 3.00391ZM11 4.50189C11 3.67347 11.6716 3.00189 12.5 3.00189C13.3284 3.00189 14 3.67347 14 4.50189C14 5.33032 13.3284 6.00189 12.5 6.00189C11.6716 6.00189 11 5.33032 11 4.50189ZM12.5 4.00189C12.2239 4.00189 12 4.22575 12 4.50189C12 4.77803 12.2239 5.00189 12.5 5.00189C12.7761 5.00189 13 4.77803 13 4.50189C13 4.22575 12.7761 4.00189 12.5 4.00189ZM3.5 3.00189C2.67157 3.00189 2 3.67347 2 4.50189C2 5.33032 2.67157 6.00189 3.5 6.00189C4.32843 6.00189 5 5.33032 5 4.50189C5 3.67347 4.32843 3.00189 3.5 3.00189ZM3 4.50189C3 4.22575 3.22386 4.00189 3.5 4.00189C3.77614 4.00189 4 4.22575 4 4.50189C4 4.77803 3.77614 5.00189 3.5 5.00189C3.22386 5.00189 3 4.77803 3 4.50189ZM4.26756 7.00159C4.09739 7.29576 4 7.6373 4 8.00159H2V10.5019C2 11.3303 2.67157 12.0019 3.5 12.0019C3.71194 12.0019 3.91361 11.958 4.09639 11.8787C4.1705 12.2101 4.28572 12.5259 4.43643 12.8206C4.14721 12.9375 3.83112 13.0019 3.5 13.0019C2.11929 13.0019 1 11.8826 1 10.5019V8.00159C1 7.4493 1.44772 7.00159 2 7.00159H4.26756ZM11.5636 12.8206C11.8528 12.9375 12.1689 13.0019 12.5 13.0019C13.8807 13.0019 15 11.8826 15 10.5019V8.00159C15 7.4493 14.5523 7.00159 14 7.00159H11.7324C11.9026 7.29576 12 7.6373 12 8.00159H14V10.5019C14 11.3303 13.3284 12.0019 12.5 12.0019C12.2881 12.0019 12.0864 11.958 11.9036 11.8787C11.8295 12.2101 11.7143 12.5259 11.5636 12.8206ZM6 7.00159C5.44772 7.00159 5 7.4493 5 8.00159V11.0019C5 12.6588 6.34315 14.0019 8 14.0019C9.65685 14.0019 11 12.6588 11 11.0019V8.00159C11 7.4493 10.5523 7.00159 10 7.00159H6ZM6 8.00159H10V11.0019C10 12.1065 9.10457 13.0019 8 13.0019C6.89543 13.0019 6 12.1065 6 11.0019V8.00159Z" fill="#242424"/>
</svg>
