<svg width="24" height="24" viewBox="0 0 24 24" fill="none" xmlns="http://www.w3.org/2000/svg">
<path d="M9.20435 3.99735L9.2514 3.99609L9.29715 3.9973C9.31959 3.9986 9.34207 4.00093 9.36453 4.00433L9.38061 4.00814C9.46602 4.02186 9.55089 4.05236 9.63179 4.10029L9.68366 4.13383L14.754 7.69909L19.821 4.13718C20.2887 3.80838 20.9225 4.10391 20.9954 4.64625L21.0023 4.75074V15.3833C21.0023 15.5926 20.915 15.7907 20.7642 15.9314L20.6837 15.9968L15.1837 19.8632C14.9168 20.0508 14.5958 20.0352 14.3558 19.8863L9.251 16.2951L4.18132 19.8599C3.71361 20.1887 3.07987 19.8931 3.00693 19.3508L3 19.2463V8.61377C3 8.40445 3.08735 8.20636 3.23812 8.0656L3.31868 8.0002L8.81868 4.13383C8.88268 4.08884 8.94979 4.05554 9.01815 4.03296L9.14062 4.00495L9.20435 3.99735ZM19.5023 6.19475L15.5023 9.00666V17.8056L19.5023 14.9937V6.19475ZM8.5 6.1914L4.5 9.00331V17.8023L8.5 14.9904V6.1914ZM10.0023 6.1914V14.9904L14.0023 17.8023V9.00331L10.0023 6.1914Z" fill="#242424"/>
</svg>
