<svg width="28" height="28" viewBox="0 0 28 28" fill="none" xmlns="http://www.w3.org/2000/svg">
<path d="M5.989 3C7.093 3 7.989 3.896 7.989 5V23C7.989 24.104 7.093 25 5.989 25H4C2.895 25 2 24.104 2 23V5C2 3.896 2.895 3 4 3H5.989ZM12.989 3C14.093 3 14.989 3.896 14.989 5V23C14.989 24.104 14.093 25 12.989 25H10.994C9.889 25 8.994 24.104 8.994 23V5C8.994 3.896 9.889 3 10.994 3H12.989ZM22.0694 6.5432L25.9294 22.0262C26.1964 23.0972 25.5434 24.1832 24.4724 24.4512L22.5094 24.9402C21.4384 25.2072 20.3524 24.5552 20.0854 23.4832L16.2254 8.0002C15.9574 6.9282 16.6104 5.8432 17.6814 5.5752L19.6444 5.0862C20.7154 4.8182 21.8014 5.4712 22.0694 6.5432Z" fill="#242424"/>
</svg>
