<svg width="28" height="28" viewBox="0 0 28 28" fill="none" xmlns="http://www.w3.org/2000/svg">
<path d="M4 3H5.99C7.04382 3 7.90812 3.8164 7.98451 4.85081L7.99 5V23C7.99 24.0538 7.1736 24.9181 6.13919 24.9945L5.99 25H4C2.94618 25 2.08188 24.1836 2.00549 23.1492L2 23V5C2 3.94618 2.8164 3.08188 3.85081 3.00549L4 3H5.99H4ZM10.995 3H12.99C14.0438 3 14.9081 3.8164 14.9845 4.85081L14.99 5V23C14.99 24.0538 14.1736 24.9181 13.1392 24.9945L12.99 25H10.995C9.94023 25 9.0768 24.1836 9.00048 23.1492L8.995 23V5C8.995 3.94618 9.81049 3.08188 10.8457 3.00549L10.995 3H12.99H10.995ZM20.1306 5.0264C20.9739 5.0264 21.7463 5.56409 22.0235 6.38602L22.0696 6.5434L25.9296 22.0264C26.1854 23.0487 25.603 24.0847 24.6171 24.4099L24.4736 24.4514L22.5106 24.9404C22.3486 24.9804 22.1856 25.0004 22.0256 25.0004C21.1814 25.0004 20.4098 24.4618 20.1327 23.6406L20.0866 23.4834L16.2256 8.0004C15.9707 6.97617 16.5532 5.94101 17.5391 5.6168L17.6826 5.5754L19.6456 5.0864C19.8076 5.0464 19.9706 5.0264 20.1306 5.0264ZM5.99 4.5H4C3.75556 4.5 3.55062 4.67778 3.50809 4.91043L3.5 5V23C3.5 23.2444 3.67778 23.4494 3.91043 23.4919L4 23.5H5.99C6.23533 23.5 6.43958 23.3222 6.48194 23.0896L6.49 23V5C6.49 4.75556 6.31301 4.55062 6.07984 4.50809L5.99 4.5ZM12.99 4.5H10.995C10.7497 4.5 10.5454 4.67778 10.5031 4.91043L10.495 5V23C10.495 23.2444 10.672 23.4494 10.9052 23.4919L10.995 23.5H12.99C13.2353 23.5 13.4396 23.3222 13.4819 23.0896L13.49 23V5C13.49 4.75556 13.313 4.55062 13.0798 4.50809L12.99 4.5ZM20.1306 6.5264L20.0691 6.53015L20.0076 6.5414L18.0456 7.0304C17.8074 7.08996 17.6521 7.31149 17.6676 7.5475L17.6816 7.6364L21.5416 23.1204C21.6066 23.3804 21.8386 23.5004 22.0256 23.5004L22.087 23.4965L22.1476 23.4844L24.1106 22.9954C24.3488 22.9358 24.5041 22.7151 24.4886 22.4786L24.4746 22.3894L20.6136 6.9054C20.5486 6.6444 20.3176 6.5264 20.1306 6.5264Z" fill="#242424"/>
</svg>
